<svg width="132" height="314" viewBox="0 0 132 314" fill="none" xmlns="http://www.w3.org/2000/svg">
<path d="M28.7656 305.366C28.23 305.501 27.6867 305.175 27.5521 304.64L25.3592 295.911C25.2246 295.375 25.5497 294.832 26.0854 294.698C26.621 294.563 27.1643 294.888 27.2989 295.424L29.2482 303.183L37.007 301.233C37.5427 301.099 38.086 301.424 38.2206 301.96C38.3551 302.495 38.03 303.039 37.4944 303.173L28.7656 305.366ZM56.1256 208.57L56.1758 209.568L56.1389 209.57L56.102 209.569L56.1256 208.57ZM83.7292 112.743L82.9827 112.078L82.9879 112.072L82.9932 112.066L83.7292 112.743ZM110.558 17.5494C110.209 17.1217 110.272 16.4917 110.7 16.1423L117.67 10.4486C118.098 10.0992 118.728 10.1627 119.077 10.5904C119.427 11.0181 119.363 11.6481 118.935 11.9975L112.74 17.0586L117.801 23.2542C118.15 23.6819 118.087 24.3119 117.659 24.6613C117.231 25.0107 116.601 24.9472 116.252 24.5194L110.558 17.5494ZM27.6639 303.883C47.0844 271.43 59.0351 247.313 63.5966 231.477C65.888 223.523 66.2497 217.867 64.9602 214.322C64.3308 212.591 63.3135 211.376 61.9181 210.604C60.5024 209.821 58.6122 209.446 56.1758 209.568L56.0753 207.571C58.7499 207.436 61.0442 207.834 62.8866 208.854C64.7494 209.885 66.0638 211.504 66.8398 213.638C68.361 217.821 67.8277 224.014 65.5185 232.031C60.8788 248.138 48.8058 272.448 29.38 304.91L27.6639 303.883ZM56.102 209.569C46.5756 209.345 39.7081 207.164 35.856 202.736C31.9627 198.26 31.4033 191.798 33.7451 183.668C36.0894 175.53 41.3949 165.5 49.5886 153.599C57.7909 141.686 68.9257 127.844 82.9827 112.078L84.4756 113.409C70.4511 129.139 59.3747 142.913 51.2359 154.733C43.0886 166.567 37.9233 176.389 35.667 184.222C33.4082 192.063 34.1184 197.691 37.365 201.423C40.6527 205.203 46.7953 207.349 56.1491 207.57L56.102 209.569ZM82.9932 112.066C96.8121 97.0453 107.733 83.8043 115.768 72.3398C123.811 60.8639 128.924 51.2201 131.179 43.3893C133.435 35.5589 132.791 29.717 129.599 25.6144C126.381 21.4764 120.364 18.8321 111.232 17.9117L111.433 15.9218C120.773 16.8632 127.461 19.6081 131.178 24.3864C134.923 29.2003 135.446 35.8022 133.101 43.9429C130.756 52.0831 125.5 61.9378 117.406 73.4876C109.304 85.0488 98.3196 98.3608 84.4651 113.42L82.9932 112.066Z" fill="#FBF8F0"/>
</svg>
