<svg width="406" height="564" viewBox="0 0 406 564" fill="none" xmlns="http://www.w3.org/2000/svg">
<path fill-rule="evenodd" clip-rule="evenodd" d="M296.26 14.13C355.609 16.3012 424.63 -12.6007 469.651 26.1301C514.763 64.9384 489.238 139.511 507.748 196.067C526.323 252.82 579.814 296.547 577.687 356.225C575.248 424.67 551.955 500.237 495.526 539.05C439.345 577.692 363.526 560.963 296.26 549.797C238.538 540.215 180.923 521.721 139.887 480.012C102.362 441.872 105.649 382.653 83.771 333.825C57.9179 276.125 -5.44087 231.604 0.375074 168.645C6.41843 103.224 55.1622 43.5089 113.399 13.097C168.785 -15.8264 233.818 11.8457 296.26 14.13Z" fill="#0CA791" fill-opacity="0.12"/>
</svg>
