<svg width="13" height="16" viewBox="0 0 13 16" fill="none" xmlns="http://www.w3.org/2000/svg">
<path d="M6.5 0C4.25994 0 2.4375 1.7944 2.4375 4V6.4H1.625C1.19402 6.4 0.780698 6.56857 0.475951 6.86863C0.171205 7.16869 0 7.57565 0 8V14.4C0 14.8243 0.171205 15.2313 0.475951 15.5314C0.780698 15.8314 1.19402 16 1.625 16H11.375C11.806 16 12.2193 15.8314 12.524 15.5314C12.8288 15.2313 13 14.8243 13 14.4V8C13 7.57565 12.8288 7.16869 12.524 6.86863C12.2193 6.56857 11.806 6.4 11.375 6.4H10.5625V4C10.5625 1.7944 8.74006 0 6.5 0ZM4.0625 4C4.0625 2.6768 5.15612 1.6 6.5 1.6C7.84388 1.6 8.9375 2.6768 8.9375 4V6.4H4.0625V4ZM7.3125 12.5784V14.4H5.6875V12.5784C5.40344 12.4182 5.17535 12.1771 5.0333 11.8867C4.89125 11.5963 4.84192 11.2704 4.89181 10.9518C4.94169 10.6333 5.08846 10.3371 5.31275 10.1023C5.53704 9.86759 5.82832 9.70527 6.14819 9.6368C6.38578 9.58508 6.63213 9.58652 6.86907 9.64103C7.10602 9.69554 7.32752 9.80172 7.51724 9.95174C7.70695 10.1018 7.86005 10.2918 7.96524 10.5078C8.07043 10.7239 8.12502 10.9604 8.125 11.2C8.12453 11.4798 8.04918 11.7545 7.90654 11.9965C7.7639 12.2385 7.55901 12.4392 7.3125 12.5784V12.5784Z" fill="white"/>
</svg>
