<svg width="1075" height="224" viewBox="0 0 1075 224" fill="none" xmlns="http://www.w3.org/2000/svg">
<path d="M0.842668 216.454C0.477092 216.04 0.516325 215.408 0.930298 215.042L7.67636 209.085C8.09034 208.719 8.72229 208.759 9.08786 209.173C9.45344 209.587 9.4142 210.219 9.00023 210.584L3.00373 215.88L8.29919 221.876C8.66477 222.29 8.62553 222.922 8.21156 223.288C7.79759 223.653 7.16564 223.614 6.80006 223.2L0.842668 216.454ZM359.26 144.482L358.396 144.986L358.377 144.954L358.361 144.92L359.26 144.482ZM716.927 73.1725L717.175 72.2038L717.183 72.2057L717.191 72.2078L716.927 73.1725ZM1073.68 1.46542C1073.9 0.95859 1074.49 0.725615 1074.99 0.945053L1083.25 4.5209C1083.76 4.74031 1083.99 5.32907 1083.77 5.83588C1083.55 6.34271 1082.96 6.57568 1082.46 6.35625L1075.12 3.17774L1071.94 10.5192C1071.72 11.026 1071.13 11.259 1070.62 11.0396C1070.11 10.8201 1069.88 10.2314 1070.1 9.72456L1073.68 1.46542ZM1.65419 214.794C139.716 223.365 238.441 221.699 297.914 209.841C327.688 203.905 347.408 195.453 357.37 184.646C362.321 179.275 364.853 173.332 365.038 166.792C365.224 160.229 363.047 152.968 358.396 144.986L360.124 143.979C364.895 152.167 367.237 159.798 367.037 166.849C366.837 173.923 364.082 180.315 358.841 186.001C348.419 197.307 328.142 205.854 298.305 211.803C238.555 223.715 139.602 225.362 1.53027 216.79L1.65419 214.794ZM358.361 144.92C343.188 113.802 339.136 88.7065 346.63 69.8153C354.146 50.8658 373.122 38.5241 403.075 32.5523C433.036 26.5788 474.201 26.9253 526.518 33.537C578.85 40.1506 642.405 53.0421 717.175 72.2038L716.679 74.1412C641.956 54.9916 578.488 42.1208 526.268 35.5212C474.032 28.9198 433.116 28.6022 403.466 34.5137C373.807 40.4268 355.642 52.5191 348.489 70.5527C341.312 88.6446 345.061 113.081 360.159 144.044L358.361 144.92ZM717.191 72.2078C789.268 91.8836 850.751 105.148 901.647 112.011C952.557 118.875 992.81 119.323 1022.46 113.412C1052.11 107.502 1070.97 95.2737 1079.44 76.9278C1087.93 58.541 1086.12 33.7009 1073.66 2.23068L1075.52 1.49478C1088.06 33.1599 1090.08 58.6426 1081.26 77.7659C1072.41 96.9301 1052.81 109.4 1022.85 115.374C992.885 121.348 952.379 120.869 901.38 113.993C850.367 107.115 788.792 93.8268 716.664 74.1372L717.191 72.2078Z" fill="#FBF8F0"/>
</svg>
