<svg width="206" height="159" viewBox="0 0 206 159" fill="none" xmlns="http://www.w3.org/2000/svg">
<path d="M1.77088 157.817C1.87666 158.359 2.40185 158.712 2.9439 158.607L11.7773 156.883C12.3193 156.777 12.673 156.252 12.5672 155.71C12.4614 155.168 11.9362 154.814 11.3942 154.92L3.5423 156.452L2.00995 148.6C1.90416 148.058 1.37898 147.705 0.836922 147.81C0.294863 147.916 -0.0588053 148.441 0.0469821 148.983L1.77088 157.817ZM68.9969 112.774L68.0657 113.138L68.075 113.162L68.0855 113.185L68.9969 112.774ZM135.241 67.922L136.183 68.2599L136.186 68.2509L136.189 68.242L135.241 67.922ZM201.182 24.0231C201.708 24.1911 202.27 23.9009 202.439 23.3749L205.178 14.8018C205.346 14.2757 205.056 13.713 204.529 13.5449C204.003 13.3768 203.441 13.667 203.273 14.1931L200.838 21.8136L193.217 19.3788C192.691 19.2107 192.128 19.5009 191.96 20.027C191.792 20.5531 192.082 21.1158 192.609 21.2839L201.182 24.0231ZM3.58182 158.184C21.2465 131.952 35.5065 115.25 46.3707 107.894C51.8084 104.212 56.1967 103.008 59.6483 103.857C63.0578 104.697 65.9112 107.636 68.0657 113.138L69.9281 112.409C67.6654 106.631 64.4459 102.979 60.1264 101.915C55.8491 100.862 50.8525 102.444 45.2495 106.238C34.0322 113.833 19.5871 130.836 1.9229 157.067L3.58182 158.184ZM68.0855 113.185C72.7633 123.542 77.7347 130.563 83.073 134.011C85.7658 135.75 88.5657 136.589 91.453 136.466C94.3325 136.344 97.2151 135.269 100.09 133.323C105.809 129.45 111.639 122.031 117.613 111.229C123.601 100.402 129.789 86.0731 136.183 68.2599L134.3 67.5842C127.926 85.3441 121.779 99.5636 115.863 110.261C109.933 120.983 104.29 128.064 98.9686 131.666C96.323 133.458 93.7932 134.365 91.3681 134.468C88.9509 134.57 86.5541 133.878 84.1582 132.331C79.319 129.205 74.5446 122.627 69.9083 112.362L68.0855 113.185ZM136.189 68.242C142.073 50.8154 147.853 36.8474 153.524 26.3192C159.207 15.7677 164.727 8.77296 170.045 5.17213C172.69 3.38169 175.255 2.44984 177.752 2.30804C180.243 2.16653 182.74 2.80716 185.261 4.28232C190.344 7.25727 195.476 13.5991 200.597 23.5289L202.375 22.6122C197.202 12.5824 191.854 5.82335 186.271 2.55615C183.458 0.91025 180.574 0.144475 177.638 0.31125C174.708 0.477721 171.8 1.56883 168.924 3.51602C163.202 7.39045 157.494 14.7297 151.763 25.3708C146.019 36.0353 140.198 50.1187 134.294 67.6021L136.189 68.242Z" fill="#4C75F2"/>
</svg>
