<svg width="685" height="612" viewBox="0 0 685 612" fill="none" xmlns="http://www.w3.org/2000/svg">
<path fill-rule="evenodd" clip-rule="evenodd" d="M322.718 42.2962C389.993 43.5993 456.244 -9.39533 518.039 17.2328C583.178 45.3022 619.251 115.278 645.239 181.275C672.558 250.652 703.648 332.751 668.087 398.286C632.836 463.25 538.146 457.31 474.795 495.385C419.745 528.471 385.715 593.346 322.718 605.857C253.262 619.651 178.025 605.625 119.355 565.974C59.6314 525.612 17.6419 460.512 3.1651 389.898C-10.4709 323.385 23.1414 260.117 43.3622 195.301C63.881 129.53 61.3938 42.6545 121.821 9.55815C182.822 -23.8522 253.18 40.9493 322.718 42.2962Z" fill="#17DEC2" fill-opacity="0.05"/>
</svg>
