<svg width="31" height="35" viewBox="0 0 31 35" fill="none" xmlns="http://www.w3.org/2000/svg">
<path d="M15.1555 0L30.3109 8.75V26.25L15.1555 35L0 26.25V8.75L15.1555 0Z" fill="#2D2D2D"/>
<path d="M19.4049 20.0002C20.7176 18.6874 21.4551 16.9069 21.4551 15.0504C21.4551 13.1939 20.7176 11.4134 19.4049 10.1007C18.0921 8.78791 16.3116 8.05042 14.4551 8.05042C12.5986 8.05041 10.8181 8.78791 9.50537 10.1007L14.4551 15.0504L19.4049 20.0002Z" fill="white"/>
<path d="M11.2553 15.0005C10.6053 15.6505 10.0897 16.4222 9.73792 17.2715C9.38614 18.1207 9.20508 19.031 9.20508 19.9502C9.20508 20.8695 9.38614 21.7798 9.73792 22.629C10.0897 23.4783 10.6053 24.25 11.2553 24.9C11.9053 25.55 12.677 26.0656 13.5263 26.4174C14.3756 26.7692 15.2858 26.9502 16.2051 26.9502C17.1244 26.9502 18.0346 26.7692 18.8839 26.4174C19.7332 26.0656 20.5048 25.55 21.1549 24.9L16.2051 19.9502L11.2553 15.0005Z" fill="white"/>
</svg>
